<?xml version="1.0" standalone="no"?>
<!DOCTYPE svg PUBLIC "-//W3C//DTD SVG 20010904//EN"
 "http://www.w3.org/TR/2001/REC-SVG-20010904/DTD/svg10.dtd">
<svg version="1.0" xmlns="http://www.w3.org/2000/svg"
 width="300.000000pt" height="300.000000pt" viewBox="0 0 300.000000 300.000000"
 preserveAspectRatio="xMidYMid meet">
<metadata>
Created by potrace 1.10, written by Peter Selinger 2001-2011
</metadata>
<g transform="translate(0.000000,300.000000) scale(0.100000,-0.100000)"
fill="#000000" stroke="none">
<path d="M740 1513 c0 -136 1 -143 20 -143 19 0 20 7 20 143 0 136 -1 143 -20
143 -19 0 -20 -7 -20 -143z m30 -3 c0 -80 -4 -130 -10 -130 -6 0 -10 50 -10
130 0 80 4 130 10 130 6 0 10 -50 10 -130z"/>
<path d="M792 1519 c-2 -139 -1 -147 18 -152 18 -5 20 0 20 49 l0 54 63 2 62
1 -65 7 -65 7 63 1 c34 1 62 7 62 12 0 6 -28 11 -62 12 l-63 1 65 7 65 7 -62
1 -63 2 0 33 0 33 65 -4 c44 -3 65 -1 65 7 0 7 -26 12 -67 13 l-68 2 70 6 70
6 -70 4 -70 4 60 3 c89 6 94 23 7 23 l-72 0 0 -134 c0 -186 -19 -188 -23 -4
l-3 143 -2 -146z"/>
<path d="M1080 1639 c-47 -109 -107 -270 -101 -274 5 -2 31 56 60 130 29 74
54 135 57 135 11 0 24 -53 15 -64 -5 -6 -23 -47 -41 -91 -17 -44 -34 -86 -37
-92 -3 -7 -1 -13 4 -13 4 0 16 23 26 51 10 28 28 72 39 97 l20 47 18 -40 c24
-51 24 -63 3 -68 -10 -2 -8 -3 5 -2 12 1 22 -2 22 -6 0 -5 -16 -9 -35 -9 -19
0 -35 2 -35 4 0 2 7 20 16 41 8 20 13 40 10 42 -3 3 -10 -5 -15 -18 -5 -13
-19 -48 -30 -78 -12 -29 -20 -59 -18 -65 2 -6 9 5 16 26 11 33 15 36 56 40 27
2 45 -1 45 -7 0 -6 -17 -9 -40 -7 -27 3 -40 0 -40 -8 0 -8 14 -11 45 -8 39 3
45 0 50 -20 3 -12 9 -20 14 -18 8 5 -97 277 -112 292 -3 4 -11 -4 -17 -17z"/>
<path d="M1120 1653 c0 -15 114 -293 118 -288 2 2 -19 62 -47 134 -28 72 -51
135 -51 140 0 5 -4 13 -10 16 -5 3 -10 3 -10 -2z"/>
<path d="M1199 1515 c31 -80 59 -145 64 -145 4 0 1 15 -6 33 -8 17 -33 83 -57
145 -24 61 -47 112 -51 112 -3 0 19 -65 50 -145z"/>
<path d="M1173 1648 c3 -7 29 -73 57 -145 29 -73 56 -133 60 -133 4 0 -18 65
-49 145 -31 80 -60 145 -65 145 -4 0 -6 -6 -3 -12z"/>
<path d="M1324 1510 c0 -85 2 -120 3 -77 2 42 2 112 0 155 -1 42 -3 7 -3 -78z"/>
<path d="M1340 1515 c0 -90 4 -145 10 -145 6 0 10 55 10 145 0 90 -4 145 -10
145 -6 0 -10 -55 -10 -145z"/>
<path d="M1374 1515 c0 -82 2 -115 3 -72 2 43 2 110 0 150 -1 40 -3 5 -3 -78z"/>
<path d="M1393 1515 c0 -80 4 -145 9 -145 4 0 8 25 8 55 l0 55 55 0 54 0 4
-62 c2 -35 3 7 3 92 0 85 -1 127 -3 93 l-4 -63 -54 0 -55 0 0 60 c0 33 -4 60
-9 60 -5 0 -8 -65 -8 -145z m105 8 c-15 -2 -42 -2 -60 0 -18 2 -6 4 27 4 33 0
48 -2 33 -4z m22 -23 c0 -5 -25 -10 -55 -10 -30 0 -55 5 -55 10 0 6 25 10 55
10 30 0 55 -4 55 -10z"/>
<path d="M1550 1658 c-5 -30 -3 -288 3 -288 4 0 7 65 7 145 0 80 -2 145 -5
145 -3 0 -5 -1 -5 -2z"/>
<path d="M1570 1513 c0 -136 1 -143 20 -143 19 0 20 7 20 143 0 136 -1 143
-20 143 -19 0 -20 -7 -20 -143z m30 -3 c0 -68 -4 -121 -10 -125 -6 -4 -10 40
-10 125 0 85 4 129 10 125 6 -4 10 -57 10 -125z"/>
<path d="M1686 1514 c-32 -80 -56 -148 -52 -151 3 -3 10 5 15 18 49 129 94
236 102 244 12 12 12 -17 0 -30 -4 -6 -25 -53 -46 -105 -50 -126 -50 -127 -38
-115 5 6 30 59 53 120 l44 109 14 -33 c7 -19 9 -37 5 -40 -13 -9 -73 -161 -64
-161 5 0 16 21 26 48 10 26 25 63 33 82 l14 35 28 -70 c15 -39 30 -79 34 -89
3 -10 9 -16 12 -13 7 7 -106 297 -116 297 -4 0 -32 -65 -64 -146z"/>
<path d="M1772 1653 c2 -5 28 -70 58 -145 30 -76 57 -138 61 -138 10 0 -104
289 -114 290 -5 0 -7 -3 -5 -7z"/>
<path d="M1800 1659 c0 -3 22 -62 48 -130 27 -68 52 -133 56 -143 3 -10 9 -16
12 -13 6 6 -93 265 -107 282 -5 5 -9 7 -9 4z"/>
<path d="M1830 1654 c0 -9 21 -64 105 -279 4 -11 9 -15 12 -9 2 6 -20 72 -48
145 -49 126 -69 167 -69 143z"/>
<path d="M1970 1515 l0 -145 105 0 105 0 37 34 c34 31 37 39 40 97 7 119 -42
159 -197 159 l-90 0 0 -145z m234 100 c51 -47 61 -120 23 -176 -32 -48 -60
-59 -154 -59 l-83 0 0 130 0 130 94 0 c85 0 95 -2 120 -25z"/>
<path d="M2000 1509 l0 -122 85 5 c71 4 89 8 109 27 55 52 58 131 6 183 -27
26 -33 28 -114 28 l-86 0 0 -121z m183 91 c34 -27 48 -79 36 -125 -15 -52 -41
-65 -131 -65 l-78 0 0 105 0 105 74 0 c59 0 78 -4 99 -20z"/>
<path d="M2030 1515 l0 -95 65 0 c57 0 69 3 90 25 37 36 35 97 -4 136 -26 26
-36 29 -90 29 l-61 0 0 -95z m136 67 c37 -24 43 -87 13 -126 -18 -23 -28 -26
-80 -26 l-59 0 0 80 0 80 58 0 c31 0 62 -4 68 -8z"/>
<path d="M2052 1513 l3 -68 41 -3 c55 -4 88 22 88 71 0 53 -17 67 -81 67 l-54
0 3 -67z m108 38 c14 -26 13 -64 -2 -79 -7 -7 -30 -12 -52 -12 l-41 0 2 52 c1
29 2 54 2 56 1 1 19 2 41 2 29 0 42 -5 50 -19z"/>
<path d="M1048 1485 c-25 -63 -43 -115 -39 -115 9 0 95 219 89 226 -3 2 -25
-48 -50 -111z"/>
<path d="M1726 1476 c-21 -54 -36 -100 -32 -103 3 -3 9 3 12 13 4 10 20 52 36
93 16 40 27 78 26 83 -2 6 -21 -33 -42 -86z"/>
<path d="M1755 1410 c-4 -6 10 -10 34 -10 23 0 41 5 41 10 0 6 -15 10 -34 10
-19 0 -38 -4 -41 -10z"/>
</g>
</svg>
