<?xml version="1.0" standalone="no"?>
<!DOCTYPE svg PUBLIC "-//W3C//DTD SVG 20010904//EN"
 "http://www.w3.org/TR/2001/REC-SVG-20010904/DTD/svg10.dtd">
<svg version="1.0" xmlns="http://www.w3.org/2000/svg"
 width="675.000000pt" height="675.000000pt" viewBox="0 0 675.000000 675.000000"
 preserveAspectRatio="xMidYMid meet">
<metadata>
Created by potrace 1.10, written by Peter Selinger 2001-2011
</metadata>
<g transform="translate(0.000000,675.000000) scale(0.100000,-0.100000)"
fill="#000000" stroke="none">
<path d="M4449 5270 c-47 -4 -91 -10 -97 -14 -7 -4 -33 -11 -60 -16 -57 -10
-146 -41 -202 -71 -8 -4 -35 -18 -60 -30 -25 -13 -49 -29 -53 -36 -4 -7 -13
-13 -19 -13 -26 0 -163 -129 -229 -215 -45 -59 -139 -238 -139 -264 0 -7 -6
-27 -14 -44 -36 -84 -61 -431 -36 -500 6 -18 15 -54 20 -82 8 -53 24 -104 46
-147 8 -14 14 -33 14 -41 0 -8 7 -20 15 -27 8 -7 15 -19 15 -26 0 -54 254
-340 323 -363 7 -2 28 -16 47 -31 19 -15 42 -30 50 -33 8 -4 38 -21 65 -37 66
-40 199 -104 320 -155 68 -28 110 -47 138 -61 16 -8 34 -14 42 -14 7 0 18 -7
25 -15 7 -8 23 -15 35 -15 12 0 28 -7 35 -15 7 -8 17 -15 23 -15 9 0 115 -52
245 -119 36 -19 182 -166 182 -184 0 -8 7 -28 15 -43 20 -39 21 -183 0 -210
-8 -10 -15 -25 -15 -32 0 -19 -75 -114 -107 -137 -44 -32 -163 -85 -191 -85
-9 0 -35 -7 -57 -15 -55 -19 -265 -19 -320 0 -22 8 -48 15 -57 15 -40 0 -186
73 -267 134 -80 59 -105 85 -188 198 -50 68 -70 88 -88 88 -13 0 -27 -4 -30
-10 -3 -5 -30 -22 -58 -36 -29 -14 -61 -31 -72 -38 -26 -15 -96 -58 -120 -74
-11 -6 -29 -17 -40 -22 -11 -6 -33 -19 -50 -30 -16 -11 -39 -24 -50 -30 -11
-6 -33 -19 -50 -30 -16 -10 -49 -29 -72 -41 -34 -18 -43 -28 -43 -50 0 -14 7
-32 15 -39 8 -7 15 -16 15 -21 0 -15 93 -144 157 -218 79 -90 245 -227 318
-261 11 -6 27 -14 35 -19 8 -5 22 -12 30 -15 8 -3 22 -10 30 -15 14 -8 54 -26
123 -54 84 -35 185 -66 256 -77 29 -5 65 -13 80 -18 39 -15 199 -27 341 -26
179 1 356 25 453 60 20 8 50 14 65 14 15 0 36 7 46 15 11 8 29 15 41 15 33 0
190 85 273 149 83 63 153 135 177 182 9 16 19 29 24 29 5 0 11 8 15 18 3 9 15
31 26 47 11 17 23 37 26 45 12 30 37 86 50 113 8 16 14 39 14 52 0 12 7 39 15
58 8 20 15 58 15 84 0 25 5 87 11 135 17 133 -7 325 -56 443 -13 32 -82 173
-101 207 -15 25 -107 131 -154 176 -39 37 -217 175 -240 185 -8 4 -28 16 -45
27 -16 11 -39 24 -50 30 -11 6 -33 19 -50 30 -16 11 -37 22 -45 26 -8 3 -22
10 -30 15 -8 5 -22 12 -30 15 -8 3 -30 12 -47 20 -18 8 -50 21 -70 31 -21 9
-50 22 -65 30 -14 7 -33 13 -41 13 -8 0 -20 7 -27 15 -7 8 -20 15 -29 15 -16
0 -53 17 -251 113 -194 94 -290 170 -325 257 -4 8 -13 30 -21 48 -28 64 -15
180 27 252 5 8 13 24 18 36 19 43 133 127 186 136 17 3 56 11 87 17 57 12 72
10 193 -17 99 -23 218 -115 289 -224 20 -31 43 -62 51 -68 18 -15 25 -12 140
66 34 22 67 43 75 47 8 4 29 16 45 27 17 11 37 23 45 27 8 4 34 20 56 35 23
15 47 28 53 28 6 0 11 5 11 10 0 6 12 15 26 20 15 6 41 21 58 33 17 12 39 27
50 32 44 23 42 38 -20 131 -66 101 -188 232 -251 270 -24 14 -43 29 -43 34 0
4 -8 10 -17 14 -10 3 -31 15 -48 25 -48 32 -110 61 -128 61 -9 0 -18 4 -21 9
-5 8 -91 36 -186 61 -101 27 -345 36 -541 20z"/>
<path d="M2121 5237 c-8 -10 -12 -388 -14 -1373 -4 -1386 -4 -1400 -42 -1507
-20 -54 -93 -134 -145 -158 -161 -74 -335 -56 -483 50 -45 33 -157 169 -157
191 0 5 -4 10 -9 10 -5 0 -21 20 -35 45 -15 25 -33 45 -42 45 -8 0 -33 -13
-56 -30 -22 -17 -44 -30 -49 -30 -4 0 -38 -20 -76 -45 -37 -25 -74 -45 -80
-45 -7 0 -13 -5 -13 -10 0 -6 -8 -14 -17 -17 -10 -4 -36 -18 -58 -32 -56 -36
-77 -49 -100 -61 -11 -6 -33 -19 -50 -30 -16 -11 -39 -24 -50 -30 -60 -29 -61
-33 -24 -107 19 -37 40 -72 46 -76 7 -4 13 -13 13 -19 0 -33 210 -250 284
-293 26 -15 46 -31 46 -36 0 -5 9 -9 19 -9 11 0 22 -4 25 -9 4 -5 27 -19 54
-31 93 -43 103 -47 222 -90 19 -7 58 -16 85 -20 28 -4 64 -14 80 -20 20 -8
100 -12 240 -13 208 0 280 8 390 45 17 5 46 14 65 18 59 14 175 64 185 80 3 5
15 10 26 10 10 0 19 4 19 9 0 5 19 21 43 35 23 14 63 45 89 70 53 51 168 201
168 221 0 7 7 18 15 25 8 7 15 20 15 30 0 10 7 23 15 30 8 7 15 22 15 34 0 12
7 31 15 42 8 10 15 30 15 43 0 13 6 47 14 75 40 143 41 171 41 1606 l0 1385
-366 3 c-298 2 -368 0 -378 -11z"/>
</g>
</svg>
